<?xml version="1.0" encoding="utf-8"?>
<!-- Generator: Adobe Illustrator 23.0.1, SVG Export Plug-In . SVG Version: 6.00 Build 0)  -->
<svg version="1.1" id="Layer_1" xmlns="http://www.w3.org/2000/svg" xmlns:xlink="http://www.w3.org/1999/xlink" x="0px" y="0px"
	 viewBox="0 0 506 100" style="enable-background:new 0 0 506 100;" xml:space="preserve">
<style type="text/css">
	.st0{fill:#FFFFFF;}
</style>
<g>
	<path class="st0" d="M13.73,50.97v19.48H7.16V20.69h18.35c5.45,0,9.71,1.39,12.8,4.17c3.09,2.78,4.63,6.46,4.63,11.04
		c0,4.83-1.51,8.55-4.53,11.16s-7.34,3.91-12.97,3.91H13.73z M13.73,45.61h11.79c3.51,0,6.2-0.83,8.07-2.48
		c1.87-1.65,2.8-4.05,2.8-7.17c0-2.97-0.93-5.34-2.8-7.12c-1.87-1.78-4.43-2.71-7.69-2.77H13.73V45.61z"/>
	<path class="st0" d="M86.01,20.69v33.84c-0.02,4.69-1.5,8.53-4.43,11.52c-2.93,2.99-6.9,4.66-11.91,5.02l-1.74,0.07
		c-5.45,0-9.79-1.47-13.02-4.41c-3.24-2.94-4.88-6.98-4.92-12.13V20.69h6.49v33.7c0,3.6,0.99,6.4,2.97,8.39s4.81,2.99,8.48,2.99
		c3.71,0,6.56-0.99,8.53-2.97c1.97-1.98,2.96-4.77,2.96-8.37V20.69H86.01z"/>
	<path class="st0" d="M96.02,70.46V20.69h16.27c5.4,0,9.46,1.12,12.18,3.35c2.72,2.23,4.08,5.54,4.08,9.91
		c0,2.32-0.66,4.38-1.98,6.17c-1.32,1.79-3.12,3.17-5.4,4.15c2.69,0.75,4.81,2.18,6.37,4.29s2.34,4.62,2.34,7.54
		c0,4.47-1.45,7.98-4.34,10.53c-2.89,2.55-6.98,3.83-12.27,3.83H96.02z M102.58,41.92h9.91c2.87,0,5.17-0.72,6.89-2.16
		c1.72-1.44,2.58-3.39,2.58-5.86c0-2.74-0.8-4.73-2.39-5.98c-1.6-1.24-4.02-1.87-7.28-1.87h-9.71V41.92z M102.58,47.18v17.91h10.83
		c3.05,0,5.46-0.79,7.23-2.38s2.65-3.77,2.65-6.55c0-5.99-3.26-8.99-9.78-8.99H102.58z"/>
	<path class="st0" d="M145.84,65.09h23.58v5.37h-30.18V20.69h6.6V65.09z"/>
	<path class="st0" d="M183.6,70.46h-6.56V20.69h6.56V70.46z"/>
	<path class="st0" d="M231.85,54.67c-0.62,5.26-2.56,9.33-5.83,12.19s-7.62,4.29-13.04,4.29c-5.88,0-10.59-2.11-14.13-6.32
		c-3.54-4.21-5.32-9.85-5.32-16.92v-4.79c0-4.62,0.83-8.69,2.48-12.2c1.65-3.51,3.99-6.2,7.02-8.08c3.03-1.88,6.54-2.82,10.53-2.82
		c5.29,0,9.52,1.48,12.71,4.43c3.19,2.95,5.05,7.04,5.57,12.25h-6.6c-0.57-3.98-1.81-6.86-3.71-8.64c-1.9-1.78-4.56-2.67-7.98-2.67
		c-4.19,0-7.48,1.55-9.86,4.65c-2.38,3.1-3.57,7.51-3.57,13.24v4.82c0,5.41,1.13,9.7,3.38,12.9c2.26,3.19,5.41,4.79,9.47,4.79
		c3.65,0,6.44-0.83,8.39-2.48c1.95-1.65,3.24-4.53,3.88-8.63H231.85z"/>
	<path class="st0" d="M264,50.97v19.48h-6.56V20.69h18.35c5.45,0,9.71,1.39,12.8,4.17c3.09,2.78,4.63,6.46,4.63,11.04
		c0,4.83-1.51,8.55-4.53,11.16s-7.34,3.91-12.97,3.91H264z M264,45.61h11.79c3.51,0,6.2-0.83,8.07-2.48c1.87-1.65,2.8-4.05,2.8-7.17
		c0-2.97-0.93-5.34-2.8-7.12s-4.43-2.71-7.69-2.77H264V45.61z"/>
	<path class="st0" d="M339.53,47.18c0,4.88-0.82,9.13-2.46,12.77s-3.96,6.41-6.97,8.32s-6.52,2.87-10.53,2.87
		c-3.92,0-7.39-0.96-10.43-2.89s-5.38-4.67-7.06-8.24c-1.67-3.57-2.54-7.7-2.58-12.39v-3.59c0-4.79,0.83-9.01,2.5-12.68
		c1.66-3.67,4.02-6.48,7.06-8.42c3.04-1.95,6.52-2.92,10.44-2.92c3.99,0,7.5,0.96,10.54,2.89c3.04,1.93,5.38,4.72,7.03,8.37
		s2.46,7.91,2.46,12.77V47.18z M333,43.97c0-5.9-1.19-10.43-3.55-13.59s-5.69-4.73-9.95-4.73c-4.15,0-7.41,1.58-9.79,4.73
		s-3.61,7.54-3.67,13.14v3.66c0,5.72,1.2,10.21,3.61,13.48s5.71,4.9,9.93,4.9c4.24,0,7.52-1.54,9.84-4.63s3.52-7.51,3.59-13.28
		V43.97z"/>
	<path class="st0" d="M367.28,50.32h-11.69v20.13h-6.6V20.69h16.47c5.61,0,9.92,1.28,12.94,3.83c3.02,2.55,4.53,6.27,4.53,11.14
		c0,3.1-0.84,5.8-2.51,8.1c-1.67,2.3-4.01,4.02-6.99,5.16l11.69,21.12v0.41h-7.04L367.28,50.32z M355.59,44.96h10.08
		c3.26,0,5.85-0.84,7.78-2.53s2.89-3.95,2.89-6.78c0-3.08-0.92-5.44-2.75-7.09s-4.48-2.48-7.95-2.5h-10.05V44.96z"/>
	<path class="st0" d="M423.43,26.06h-16v44.4h-6.53v-44.4h-15.96v-5.37h38.49V26.06z"/>
	<path class="st0" d="M455.24,57.43h-20.85l-4.68,13.02h-6.77l19-49.77h5.74l19.04,49.77h-6.73L455.24,57.43z M436.37,52.07h16.92
		l-8.48-23.28L436.37,52.07z"/>
	<path class="st0" d="M479.67,65.09h23.58v5.37h-30.18V20.69h6.6V65.09z"/>
</g>
</svg>
