<svg id="Layer_1" data-name="Layer 1" xmlns="http://www.w3.org/2000/svg" viewBox="0 0 506.57 100.63"><defs><style>.cls-1{fill:#fff;}.cls-2{fill:#0f47af;}.cls-3{fill:#fcdd09;}</style></defs><title>Artboard 1</title><circle class="cls-1" cx="50.32" cy="50.32" r="50.32"/><circle class="cls-2" cx="50.32" cy="50.32" r="47.88"/><path class="cls-3" d="M55.56,38.48l-6.92-21.3L50.32,12l8.6,26.47H79.28l-4.39,3.19H45.29l1-3.19ZM73.48,19.79l-1.29-.94L60,35.64l1.29.94ZM60.34,42.87H57L66.13,71l4.39,3.19L64.23,54.84,86.75,38.48H81.32L63.19,51.64ZM67.26,55l-.49,1.52L86.5,62.91,87,61.39ZM53,63l7.47-5.42-1-3.19L35.52,71.75l-1.68,5.16,16.47-12L72.83,81.31l-1.68-5.16ZM49.52,88.62h1.6V67.87h-1.6ZM46.58,62.23l2.72-2L25.36,42.87H19.93l16.47,12L27.8,81.31l4.39-3.19,6.92-21.3ZM33.37,55,13.64,61.39l.49,1.52L33.86,56.5Zm7.31-13.31-2.85,8.78,2.72,2,9.14-28.14L48,19.11,41.72,38.48H13.88l4.39,3.19Zm0-6L28.45,18.86l-1.29.94,12.2,16.79Z"/><path class="cls-1" d="M145,40.06v-.51q0-1-.64-1h-9.34V30.78h8.35q.64,0,.64-1v-.51q0-1-.64-1h-8.35v-7.3h9.31q.64,0,.64-1v-.51q0-1-.64-1H133.21a.85.85,0,0,0-1,1V40.06a.85.85,0,0,0,1,1h11.2Q145,41,145,40.06Zm3.39-19h6.14V40.38q0,.7,1.28.7h.26q1.28,0,1.28-.7V21.06h6q.64,0,.64-1v-.51q0-1-.64-1h-15q-.64,0-.64,1v.51Q147.8,21.06,148.44,21.06Zm37.06,19.33V19.26q0-.7-1.28-.7H184q-1.28,0-1.28.7v9.06H171.09V19.26q0-.7-1.28-.7h-.26q-1.28,0-1.28.7V40.38q0,.7,1.28.7h.26q1.28,0,1.28-.7V30.75h11.58v9.63q0,.7,1.28.7h.26Q185.49,41.09,185.49,40.38Zm8.06.7h.26q1.28,0,1.28-.7V19.26q0-.7-1.28-.7h-.26q-1.28,0-1.28.7V40.38Q192.28,41.09,193.56,41.09Zm17.31-22.66q-4.83,0-7.34,2.86T201,29.76q0,5.6,2.53,8.53t7.34,2.93q4.82,0,7.34-2.93t2.53-8.53q0-5.6-2.53-8.46T210.87,18.43Zm5.18,18a7,7,0,0,1-10.35,0q-1.78-2.3-1.78-6.7t1.78-6.66a7.07,7.07,0,0,1,10.35,0q1.79,2.26,1.79,6.66T216.05,36.48Zm21.86-16.77a9.66,9.66,0,0,0-4.54-1.09h-6.5a.85.85,0,0,0-1,1v20.8q0,.7,1.28.7h.26q1.28,0,1.28-.7v-8.9h5a8.16,8.16,0,0,0,3.1-.64,6.53,6.53,0,0,0,1.81-1.09,5.36,5.36,0,0,0,1.34-1.94,7.52,7.52,0,0,0,.56-3.06,6.57,6.57,0,0,0-.7-3.12A4.43,4.43,0,0,0,237.91,19.71ZM237.17,27a3,3,0,0,1-1.06,1.3,4.37,4.37,0,0,1-2.4.77h-5v-8h4.54a5.38,5.38,0,0,1,3,.85,3.32,3.32,0,0,1,1.28,3A4.87,4.87,0,0,1,237.17,27Zm8.42,14.1h.26q1.28,0,1.28-.7V19.26q0-.7-1.28-.7h-.26q-1.28,0-1.28.7V40.38Q244.31,41.09,245.59,41.09Zm22-.51q.16.51,1.28.51h.26q1.38,0,1.38-.54a1.06,1.06,0,0,0-.1-.42l-7.58-21.06q-.16-.51-1.28-.51h-.93q-1.12,0-1.28.51l-7.58,21a1.54,1.54,0,0,0-.1.45q0,.54,1.38.54h.16q1.12,0,1.28-.51l1.82-5.25h9.41Zm-10.4-7.68,3.36-9.54L261,21.5l.42,1.86,3.36,9.54ZM163.37,55.33h-1.58a2.1,2.1,0,0,0-2,.86l-9.07,16L149.45,75l-1.25-3-9.07-15.74a2.1,2.1,0,0,0-2-.86h-1.73q-1.92,0-1.92,1.06V88.06q0,1.06,1.92,1.06h.34q1.92,0,1.92-1.06V62L147.43,79a1.12,1.12,0,0,0,1.06.62h1.92a1.12,1.12,0,0,0,1.06-.62l9.65-16.8V88.06q0,1.06,1.92,1.06h.34q1.92,0,1.92-1.06V56.38Q165.29,55.33,163.37,55.33Zm12.24,8.5h-.19q-1.92,0-1.92,1.06V88.06q0,1.06,1.92,1.06h.19q1.92,0,1.92-1.06V64.88Q177.53,63.82,175.61,63.82Zm.19-10.9h-.58q-1.92,0-1.92,1.06v2.83q0,1.06,1.92,1.06h.58q1.92,0,1.92-1.06V54Q177.72,52.93,175.8,52.93Zm20.33,10.7a9.49,9.49,0,0,0-7.18,3.6,4.58,4.58,0,0,1-.12-.55,4.67,4.67,0,0,0-.14-.62q-.07-.22-.17-.58a4.09,4.09,0,0,0-.19-.58,2.12,2.12,0,0,0-.26-.43,1.09,1.09,0,0,0-.36-.31,1.74,1.74,0,0,0-.7-.1,5.52,5.52,0,0,0-1.42.26q-.91.26-.91.84,0,.14.34,1.87a25.08,25.08,0,0,1,.24,4.18V88.06q0,1.06,1.92,1.06h.19q1.92,0,1.92-1.06V70.5q2.59-3.36,6-3.36A5,5,0,0,1,199,68.36a4.54,4.54,0,0,1,1.27,3.43V88.06q0,1.06,1.92,1.06h.19q1.92,0,1.92-1.06V71.41a7.67,7.67,0,0,0-2.09-5.71A8.25,8.25,0,0,0,196.13,63.63Zm17.69-10.7h-.58q-1.92,0-1.92,1.06v2.83q0,1.06,1.92,1.06h.58q1.92,0,1.92-1.06V54Q215.73,52.93,213.81,52.93Zm-.19,10.9h-.19q-1.92,0-1.92,1.06V88.06q0,1.06,1.92,1.06h.19q1.92,0,1.92-1.06V64.88Q215.54,63.82,213.62,63.82Zm15.65,9.79a7.71,7.71,0,0,1-2.86-1.39,2.72,2.72,0,0,1-.84-2.11,2.6,2.6,0,0,1,1.13-2.18,5.22,5.22,0,0,1,3.17-.84,7.73,7.73,0,0,1,3.67.86,4.74,4.74,0,0,0,.62.29q.43,0,1-1a3.54,3.54,0,0,0,.55-1.61q0-.77-1.92-1.39a14.13,14.13,0,0,0-4.37-.62,8.39,8.39,0,0,0-5.76,1.94,6.17,6.17,0,0,0-2.21,4.82,5.78,5.78,0,0,0,1.44,4.3A10.85,10.85,0,0,0,227.54,77a10.92,10.92,0,0,1,4.3,1.94,3.8,3.8,0,0,1,1.08,2.88,3.71,3.71,0,0,1-1.22,2.93,4.54,4.54,0,0,1-3.12,1.08,10.12,10.12,0,0,1-3.24-.46,9.92,9.92,0,0,1-2.06-.91,6.57,6.57,0,0,0-.77-.46q-.48,0-1.08,1a3.19,3.19,0,0,0-.6,1.44q0,.91,2.4,1.9a15,15,0,0,0,5.71,1,8.16,8.16,0,0,0,5.69-2.16,7.1,7.1,0,0,0,2.38-5.5,6.91,6.91,0,0,0-1.61-5Q233.78,75,229.27,73.62Zm23.71,12a6.13,6.13,0,0,0-.67.12,6.91,6.91,0,0,1-1.39.12q-2.59,0-2.59-3.55V67.38h4q1,0,1-1.44v-.58q0-1.44-1-1.44h-4v-5q0-1.06-1.44-1.06h-.48q-1.44,0-1.54,1.06l-.58,5h-2.4q-1,0-1,1.44v.58q0,1.44,1,1.44h2.4V82.69q0,3.7,1.9,5.16a6.84,6.84,0,0,0,4.3,1.46q3.5,0,3.5-1.44a4.84,4.84,0,0,0-.29-1.37Q253.41,85.62,253,85.62Zm17.81-21.46a3.45,3.45,0,0,0-2.06-.53q-3,0-5.57,3.6a4.56,4.56,0,0,1-.12-.55,4.68,4.68,0,0,0-.14-.62q-.07-.22-.17-.58a4.1,4.1,0,0,0-.19-.58,2.12,2.12,0,0,0-.26-.43,1.09,1.09,0,0,0-.36-.31,1.74,1.74,0,0,0-.7-.1,5.52,5.52,0,0,0-1.42.26q-.91.26-.91.84,0,.14.34,1.87a25.1,25.1,0,0,1,.24,4.18V88.06q0,1.06,1.92,1.06h.19q1.92,0,1.92-1.06V70.5l.58-.72a6.53,6.53,0,0,1,1.63-1.46,3.84,3.84,0,0,1,2.14-.74,5.34,5.34,0,0,1,1.78.26,4.1,4.1,0,0,0,.94.26q.38,0,.67-.89a5.52,5.52,0,0,0,.29-1.7A1.6,1.6,0,0,0,270.79,64.16Zm22.63-.34q-1.9,0-2.14.77L284.9,81.92l-6.53-17.33q-.34-.77-1.92-.77h-.38q-2.06,0-2.06.82a2.28,2.28,0,0,0,.14.62l8.4,22.42q-4.27,10.42-4.27,10.56,0,.77,1.58.77h.72q1.87,0,2.26-1l12.34-32.69a2.3,2.3,0,0,0,.14-.67Q295.32,63.82,293.42,63.82Zm29.45-.19q-5.33,0-8.21,3.36t-2.88,9.58q0,6.22,2.86,9.48t8.26,3.26q5.4,0,8.16-3.24t2.76-9.5q0-6.26-2.81-9.6T322.87,63.63ZM328,83.58a6,6,0,0,1-5.18,2.28,5.88,5.88,0,0,1-5.14-2.28Q316,81.3,316,76.47t1.63-7.1a5.88,5.88,0,0,1,5.14-2.28,6,6,0,0,1,5.18,2.3q1.68,2.3,1.68,7.1T328,83.58ZM348.5,52.74a7.47,7.47,0,0,0-4,1.15q-2.21,1.34-2.21,5.47v4.56h-1.92q-1,0-1,1.44v.58q0,1.44,1,1.44h1.92V88.06q0,1.06,1.92,1.06h.19q1.92,0,1.92-1.06V67.38h4.18q1,0,1-1.44v-.58q0-1.44-1-1.44h-4.18V59.74a4.28,4.28,0,0,1,.67-2.86,2.27,2.27,0,0,1,1.7-.7,8.37,8.37,0,0,1,1.61.12,5.94,5.94,0,0,0,.67.12q.43,0,.72-.89a4.83,4.83,0,0,0,.29-1.37Q352,52.74,348.5,52.74Zm45.17,2.59h-.38q-1.92,0-1.92,1.06V70H374V56.38q0-1.06-1.92-1.06h-.38q-1.92,0-1.92,1.06V88.06q0,1.06,1.92,1.06h.38q1.92,0,1.92-1.06V73.62h17.38V88.06q0,1.06,1.92,1.06h.38q1.92,0,1.92-1.06V56.38Q395.59,55.33,393.67,55.33Zm21,8.3q-5.23,0-8.06,3.31t-2.83,9.72q0,6.41,2.88,9.53t8.88,3.12a16,16,0,0,0,6-1.06q2.62-1.06,2.62-2a3.2,3.2,0,0,0-.6-1.44q-.6-1-1.08-1a6.23,6.23,0,0,0-1,.48,12,12,0,0,1-6,1.54A7,7,0,0,1,410.13,84q-1.78-1.87-2.06-5.86h15.17q.43,0,1-.77a2.32,2.32,0,0,0,.58-1.2Q424.82,63.63,414.65,63.63Zm-6.58,11q.53-7.58,6.72-7.58,5.76,0,5.76,7.58Zm41.38,7.25V71.17a6.7,6.7,0,0,0-2.5-5.54,10,10,0,0,0-6.43-2,19.6,19.6,0,0,0-6.74,1q-2.81,1-2.81,2a3.18,3.18,0,0,0,.6,1.44q.6,1,1.08,1a7.34,7.34,0,0,0,1.1-.53,13.89,13.89,0,0,1,6.38-1.49q5.28,0,5.28,4v2.26q-4.18.1-7.44.5a12.5,12.5,0,0,0-5.88,2.3,6.57,6.57,0,0,0-2.62,5.69q0,3.79,2.26,5.62a9.17,9.17,0,0,0,6,1.82,10.45,10.45,0,0,0,8.06-3.6,4.75,4.75,0,0,1,.12.6A4.55,4.55,0,0,0,446,87c0,.14.1.34.17.6a3.73,3.73,0,0,0,.19.6,2.69,2.69,0,0,0,.26.46A1,1,0,0,0,447,89a1.73,1.73,0,0,0,.7.1,5.49,5.49,0,0,0,1.42-.26q.91-.26.91-.84,0-.1-.34-1.87A25.52,25.52,0,0,1,449.45,81.92Zm-4,.58a16.57,16.57,0,0,1-3.48,2.45,8.87,8.87,0,0,1-4.06.86q-4.08,0-4.08-3.94a3.6,3.6,0,0,1,2-3.5,16.39,16.39,0,0,1,1.92-.86q1.73-.67,7.73-.67Zm20.35,3.12a6.13,6.13,0,0,0-.67.12,6.91,6.91,0,0,1-1.39.12q-2.59,0-2.59-3.55V54q0-1.06-1.92-1.06H459q-1.92,0-1.92,1.06v28.7q0,3.7,1.9,5.16a6.84,6.84,0,0,0,4.3,1.46q3.5,0,3.5-1.44a4.84,4.84,0,0,0-.29-1.37Q466.2,85.62,465.77,85.62Zm15.22,0a6.13,6.13,0,0,0-.67.12,6.91,6.91,0,0,1-1.39.12q-2.59,0-2.59-3.55V67.38h4q1,0,1-1.44v-.58q0-1.44-1-1.44h-4v-5q0-1.06-1.44-1.06h-.48q-1.44,0-1.54,1.06l-.58,5h-2.4q-1,0-1,1.44v.58q0,1.44,1,1.44h2.4V82.69q0,3.7,1.9,5.16a6.84,6.84,0,0,0,4.3,1.46q3.5,0,3.5-1.44a4.84,4.84,0,0,0-.29-1.37Q481.41,85.62,481,85.62Zm24.84-18.14A5.76,5.76,0,0,0,503.88,65a9.08,9.08,0,0,0-4.94-1.39,10.19,10.19,0,0,0-7.34,3.31V54q0-1.06-1.92-1.06h-.19q-1.92,0-1.92,1.06V88.06q0,1.06,1.92,1.06h.19q1.92,0,1.92-1.06V70.5l.72-.86A8.49,8.49,0,0,1,494.54,68a7.1,7.1,0,0,1,3.5-.84,4.39,4.39,0,0,1,3.24,1.25,4.61,4.61,0,0,1,1.25,3.41V88.06q0,1.06,1.92,1.06h.19q1.92,0,1.92-1.06V71.41A9.45,9.45,0,0,0,505.82,67.47Z"/></svg>